<?xml version="1.0" encoding="UTF-8"?> <svg xmlns="http://www.w3.org/2000/svg" viewBox="0 0 337.25 82.73"><defs><style>.cls-1{fill:#5a3f99;}.cls-2{fill:#439539;}.cls-3{fill:#accba0;}.cls-4{fill:#89b77a;}</style></defs><g id="Layer_2" data-name="Layer 2"><g id="Layer_1-2" data-name="Layer 1"><path class="cls-1" d="M95.37,0h10.12l13,36.74L131.7,0h10.11L123.17,51.71h-9.49Z"></path><path class="cls-1" d="M164.16,19.84h8V51.71h-8V48.35a15.62,15.62,0,0,1-4.69,3.2,13.11,13.11,0,0,1-5.11,1,14.18,14.18,0,0,1-10.68-4.79,16.71,16.71,0,0,1-4.51-11.91,17.13,17.13,0,0,1,4.36-12.1A13.88,13.88,0,0,1,154.12,19a13.51,13.51,0,0,1,5.39,1.08,14.68,14.68,0,0,1,4.65,3.26Zm-8.41,6.56A8.12,8.12,0,0,0,149.59,29a9.48,9.48,0,0,0-2.45,6.73,9.5,9.5,0,0,0,2.5,6.79,8.07,8.07,0,0,0,6.14,2.67A8.23,8.23,0,0,0,162,42.59a9.57,9.57,0,0,0,2.48-6.87A9.3,9.3,0,0,0,162,29,8.34,8.34,0,0,0,155.75,26.4Z"></path><path class="cls-1" d="M175.72,19.84h8.08V35.19a21.29,21.29,0,0,0,.62,6.23,5.46,5.46,0,0,0,2,2.71,5.69,5.69,0,0,0,3.36,1,5.84,5.84,0,0,0,3.4-1,5.57,5.57,0,0,0,2.07-2.8,21.53,21.53,0,0,0,.5-5.89V19.84h8V33.35q0,8.34-1.31,11.42a12.52,12.52,0,0,1-4.75,5.76,14.52,14.52,0,0,1-8,2,14.14,14.14,0,0,1-8.48-2.35,12.38,12.38,0,0,1-4.56-6.53c-.62-1.94-.93-5.45-.93-10.55Z"></path><path class="cls-1" d="M230.81,19.84h8v27.3q0,8.1-3.26,11.9-4.36,5.16-13.15,5.16A23,23,0,0,1,214.49,63a14.14,14.14,0,0,1-5.39-3.44,13.88,13.88,0,0,1-3.25-5.52h8.81a7.18,7.18,0,0,0,3,2,12.49,12.49,0,0,0,4.37.69,11.54,11.54,0,0,0,5.18-1A6.08,6.08,0,0,0,230,53.21a13,13,0,0,0,.81-5.45,13.19,13.19,0,0,1-4.43,3,14,14,0,0,1-5.24.92,14.42,14.42,0,0,1-10.84-4.62,16.3,16.3,0,0,1-4.43-11.72q0-7.59,4.69-12.19A14,14,0,0,1,220.7,19a13.57,13.57,0,0,1,5.2,1,16.31,16.31,0,0,1,4.91,3.33Zm-8.29,6.65A8.36,8.36,0,0,0,216.28,29a8.76,8.76,0,0,0-2.47,6.38,8.9,8.9,0,0,0,2.52,6.53,8.53,8.53,0,0,0,6.33,2.55A8.19,8.19,0,0,0,228.8,42a9,9,0,0,0,2.42-6.54A8.88,8.88,0,0,0,228.79,29,8.41,8.41,0,0,0,222.52,26.49Z"></path><path class="cls-1" d="M242.39,7.54h7.94V23.06a17.89,17.89,0,0,1,4.72-3,12.2,12.2,0,0,1,4.8-1,10.81,10.81,0,0,1,8,3.28c1.86,1.9,2.78,4.68,2.78,8.35V51.71h-7.88v-14a33.91,33.91,0,0,0-.53-7.5,5.2,5.2,0,0,0-1.8-2.93,5.09,5.09,0,0,0-3.15-1A5.94,5.94,0,0,0,253.1,28a8.59,8.59,0,0,0-2.42,4.4,36.85,36.85,0,0,0-.35,6.56v12.8h-7.94Z"></path><path class="cls-1" d="M297.39,19.84h8V51.71h-8V48.35a15.62,15.62,0,0,1-4.69,3.2,13.08,13.08,0,0,1-5.11,1,14.18,14.18,0,0,1-10.68-4.79,16.71,16.71,0,0,1-4.51-11.91,17.13,17.13,0,0,1,4.36-12.1A13.89,13.89,0,0,1,287.36,19a13.5,13.5,0,0,1,5.38,1.08,14.68,14.68,0,0,1,4.65,3.26ZM289,26.4A8.12,8.12,0,0,0,282.82,29a9.48,9.48,0,0,0-2.45,6.73,9.5,9.5,0,0,0,2.5,6.79A8.07,8.07,0,0,0,289,45.21a8.23,8.23,0,0,0,6.25-2.62,9.57,9.57,0,0,0,2.48-6.87A9.3,9.3,0,0,0,295.26,29,8.33,8.33,0,0,0,289,26.4Z"></path><path class="cls-1" d="M309,19.84h8v3.27a19.1,19.1,0,0,1,4.93-3.19,11.91,11.91,0,0,1,4.52-.9,11,11,0,0,1,8.05,3.31c1.85,1.87,2.78,4.65,2.78,8.32V51.71h-7.91v-14a35.4,35.4,0,0,0-.51-7.58A5.22,5.22,0,0,0,327,27.32a5,5,0,0,0-3.14-1A5.89,5.89,0,0,0,319.74,28a8.6,8.6,0,0,0-2.41,4.49,35.29,35.29,0,0,0-.36,6.47V51.71h-8Z"></path><path class="cls-2" d="M124.61,74l-2.22,1.22a3.74,3.74,0,0,0-1.24-.91,3.66,3.66,0,0,0-1.43-.25,3.32,3.32,0,0,0-2.42.89,3,3,0,0,0-.92,2.28,2.92,2.92,0,0,0,.89,2.22,3.22,3.22,0,0,0,2.33.86,3.38,3.38,0,0,0,2.79-1.23l2.1,1.44a5.72,5.72,0,0,1-4.82,2.23,5.81,5.81,0,0,1-4.39-1.66,5.58,5.58,0,0,1-.82-6.73,5.38,5.38,0,0,1,2.16-2,6.36,6.36,0,0,1,3.09-.75,6.27,6.27,0,0,1,2.84.63A5.34,5.34,0,0,1,124.61,74Z"></path><path class="cls-2" d="M126.88,67.73h2.65V72.9a6.12,6.12,0,0,1,1.57-1,4.14,4.14,0,0,1,1.6-.34,3.62,3.62,0,0,1,2.67,1.1,3.81,3.81,0,0,1,.93,2.78v7h-2.63V77.79a11.26,11.26,0,0,0-.18-2.5A1.59,1.59,0,0,0,131.84,74a2,2,0,0,0-1.39.53,2.85,2.85,0,0,0-.81,1.47,13.33,13.33,0,0,0-.11,2.19v4.26h-2.65Z"></path><path class="cls-2" d="M146.58,71.83h2.66V82.45h-2.66V81.33A5.42,5.42,0,0,1,145,82.4a4.33,4.33,0,0,1-1.7.33,4.75,4.75,0,0,1-3.56-1.6,5.57,5.57,0,0,1-1.5-4,5.7,5.7,0,0,1,1.45-4,4.62,4.62,0,0,1,3.53-1.58,4.44,4.44,0,0,1,1.79.37A5,5,0,0,1,146.58,73ZM143.77,74a2.69,2.69,0,0,0-2.05.87,3.13,3.13,0,0,0-.82,2.24,3.22,3.22,0,0,0,.83,2.27,2.72,2.72,0,0,0,2.05.89,2.79,2.79,0,0,0,2.09-.88,3.2,3.2,0,0,0,.82-2.29,3.13,3.13,0,0,0-.82-2.25A2.8,2.8,0,0,0,143.77,74Z"></path><path class="cls-2" d="M151.78,71.83h2.66v1.22A4.57,4.57,0,0,1,156,71.93a4.44,4.44,0,0,1,1.83-.38,3.41,3.41,0,0,1,1.79.49,3.46,3.46,0,0,1,1.29,1.43A4.42,4.42,0,0,1,162.43,72a4.34,4.34,0,0,1,2-.49,3.72,3.72,0,0,1,2,.53,3,3,0,0,1,1.24,1.38,7.37,7.37,0,0,1,.38,2.76v6.23h-2.69V77.06a4.57,4.57,0,0,0-.45-2.44,1.53,1.53,0,0,0-1.35-.64,2,2,0,0,0-1.22.39,2.35,2.35,0,0,0-.81,1.08,6.86,6.86,0,0,0-.26,2.21v4.79h-2.69V77.31a7.32,7.32,0,0,0-.21-2.07,1.85,1.85,0,0,0-.63-.95,1.65,1.65,0,0,0-1-.31,2.05,2.05,0,0,0-1.21.39,2.44,2.44,0,0,0-.81,1.11,6.85,6.85,0,0,0-.27,2.25v4.72h-2.66Z"></path><path class="cls-2" d="M173.1,67.73V73a5,5,0,0,1,1.56-1.08,4.53,4.53,0,0,1,1.8-.37A4.64,4.64,0,0,1,180,73.13a5.7,5.7,0,0,1,1.45,4,5.57,5.57,0,0,1-1.5,4,4.75,4.75,0,0,1-3.57,1.6,4.42,4.42,0,0,1-1.71-.33,5.42,5.42,0,0,1-1.57-1.07v1.12h-2.64V67.73ZM175.9,74a2.8,2.8,0,0,0-2.09.85,3.14,3.14,0,0,0-.83,2.25,3.21,3.21,0,0,0,.83,2.29,2.79,2.79,0,0,0,2.09.88A2.72,2.72,0,0,0,178,79.4a3.48,3.48,0,0,0,0-4.51A2.74,2.74,0,0,0,175.9,74Z"></path><path class="cls-2" d="M194.16,77.91H185.6a2.79,2.79,0,0,0,1,1.8,3.09,3.09,0,0,0,2.06.67,3.56,3.56,0,0,0,2.56-1l2.25,1a5.36,5.36,0,0,1-2,1.77,6.3,6.3,0,0,1-2.78.57,5.52,5.52,0,0,1-4.08-1.58,5.36,5.36,0,0,1-1.57-4,5.53,5.53,0,0,1,1.57-4,5.25,5.25,0,0,1,3.93-1.61,5.47,5.47,0,0,1,4.08,1.61,5.8,5.8,0,0,1,1.57,4.24Zm-2.66-2.1a2.73,2.73,0,0,0-1-1.44,3.06,3.06,0,0,0-1.81-.56,3.19,3.19,0,0,0-2,.63,3.45,3.45,0,0,0-1,1.37Z"></path><path class="cls-2" d="M195.56,71.83h2.28v1.34a2.94,2.94,0,0,1,1-1.21,2.41,2.41,0,0,1,1.35-.41,2.55,2.55,0,0,1,1.08.28l-.83,2.29a1.9,1.9,0,0,0-.77-.23,1.21,1.21,0,0,0-1,.76,6.84,6.84,0,0,0-.43,3v4.81h-2.64Z"></path><path class="cls-2" d="M212.88,71.55a5.64,5.64,0,0,1,2.83.76,5.49,5.49,0,0,1,2.81,4.82,5.55,5.55,0,0,1-.75,2.81,5.4,5.4,0,0,1-2,2,5.66,5.66,0,0,1-2.85.74A5.33,5.33,0,0,1,209,81.1a5.6,5.6,0,0,1,3.89-9.55Zm.05,2.51a2.73,2.73,0,0,0-2.07.87,3.06,3.06,0,0,0-.83,2.21,3.13,3.13,0,0,0,.82,2.25,2.92,2.92,0,0,0,4.15,0,3.44,3.44,0,0,0,0-4.46A2.77,2.77,0,0,0,212.93,74.06Z"></path><path class="cls-2" d="M219.29,71.83h.94c0-1.4,0-2.22.07-2.47A2,2,0,0,1,221,68a2.7,2.7,0,0,1,1.78-.52,5.65,5.65,0,0,1,1.88.38v2a3.29,3.29,0,0,0-.95-.17,1,1,0,0,0-.68.19.83.83,0,0,0-.16.61v1.33h1.69v2.25H222.9v8.37h-2.67V74.08h-.94Z"></path><path class="cls-2" d="M241.87,74l-2.22,1.22a3.74,3.74,0,0,0-1.24-.91A3.69,3.69,0,0,0,237,74a3.3,3.3,0,0,0-2.42.89,3,3,0,0,0-.92,2.28,2.92,2.92,0,0,0,.89,2.22,3.22,3.22,0,0,0,2.33.86,3.39,3.39,0,0,0,2.79-1.23l2.1,1.44a5.72,5.72,0,0,1-4.82,2.23,5.8,5.8,0,0,1-4.39-1.66,5.52,5.52,0,0,1,1.33-8.77,6.43,6.43,0,0,1,3.1-.75,6.27,6.27,0,0,1,2.84.63A5.41,5.41,0,0,1,241.87,74Z"></path><path class="cls-2" d="M249.12,71.55a5.66,5.66,0,0,1,2.83.76,5.51,5.51,0,0,1,2.8,4.82,5.54,5.54,0,0,1-.74,2.81,5.36,5.36,0,0,1-2,2,5.62,5.62,0,0,1-2.84.74,5.33,5.33,0,0,1-3.9-1.63,5.6,5.6,0,0,1,3.89-9.55Zm0,2.51a2.73,2.73,0,0,0-2.07.87,3,3,0,0,0-.83,2.21,3.13,3.13,0,0,0,.82,2.25,2.73,2.73,0,0,0,2.07.86,2.77,2.77,0,0,0,2.08-.87,3.13,3.13,0,0,0,.83-2.24,3.06,3.06,0,0,0-.82-2.22A2.75,2.75,0,0,0,249.17,74.06Z"></path><path class="cls-2" d="M256.77,71.83h2.67v1.22A4.47,4.47,0,0,1,261,71.93a4.39,4.39,0,0,1,1.82-.38,3.42,3.42,0,0,1,1.8.49,3.6,3.6,0,0,1,1.29,1.43A4.26,4.26,0,0,1,267.43,72a4.31,4.31,0,0,1,2-.49,3.75,3.75,0,0,1,2,.53,3.05,3.05,0,0,1,1.24,1.38,7.41,7.41,0,0,1,.37,2.76v6.23h-2.68V77.06a4.57,4.57,0,0,0-.45-2.44,1.53,1.53,0,0,0-1.35-.64,2.09,2.09,0,0,0-1.23.39,2.33,2.33,0,0,0-.8,1.08,6.59,6.59,0,0,0-.26,2.21v4.79h-2.69V77.31a7.32,7.32,0,0,0-.21-2.07,1.85,1.85,0,0,0-.63-.95,1.65,1.65,0,0,0-1-.31,2,2,0,0,0-1.21.39,2.44,2.44,0,0,0-.81,1.11,6.85,6.85,0,0,0-.27,2.25v4.72h-2.67Z"></path><path class="cls-2" d="M275.43,71.83h2.67v1.22a4.4,4.4,0,0,1,3.34-1.5,3.45,3.45,0,0,1,1.8.49,3.6,3.6,0,0,1,1.29,1.43A4.26,4.26,0,0,1,286.09,72a4.31,4.31,0,0,1,2-.49,3.75,3.75,0,0,1,2,.53,3,3,0,0,1,1.23,1.38,7.17,7.17,0,0,1,.38,2.76v6.23H289V77.06a4.57,4.57,0,0,0-.45-2.44,1.53,1.53,0,0,0-1.35-.64,2.07,2.07,0,0,0-1.23.39,2.27,2.27,0,0,0-.8,1.08,6.53,6.53,0,0,0-.27,2.21v4.79h-2.68V77.31a7.32,7.32,0,0,0-.21-2.07,1.85,1.85,0,0,0-.63-.95,1.65,1.65,0,0,0-1-.31,2,2,0,0,0-1.21.39,2.44,2.44,0,0,0-.81,1.11,6.85,6.85,0,0,0-.27,2.25v4.72h-2.67Z"></path><path class="cls-2" d="M304.76,77.91h-8.57a2.83,2.83,0,0,0,1,1.8,3.09,3.09,0,0,0,2.06.67,3.6,3.6,0,0,0,2.57-1l2.24,1a5.36,5.36,0,0,1-2,1.77,6.3,6.3,0,0,1-2.78.57,5.52,5.52,0,0,1-4.08-1.58,5.4,5.4,0,0,1-1.57-4,5.58,5.58,0,0,1,1.57-4,5.29,5.29,0,0,1,3.93-1.61,5.47,5.47,0,0,1,4.08,1.61,5.81,5.81,0,0,1,1.58,4.24Zm-2.67-2.1a2.68,2.68,0,0,0-1-1.44,3,3,0,0,0-1.81-.56,3.16,3.16,0,0,0-1.95.63,3.36,3.36,0,0,0-1,1.37Z"></path><path class="cls-2" d="M306.15,71.83h2.28v1.34a2.94,2.94,0,0,1,1-1.21,2.41,2.41,0,0,1,1.35-.41,2.55,2.55,0,0,1,1.08.28L311,74.12a1.9,1.9,0,0,0-.77-.23,1.21,1.21,0,0,0-1,.76,7,7,0,0,0-.42,3v4.81h-2.64Z"></path><path class="cls-2" d="M323.43,74l-2.22,1.22a3.74,3.74,0,0,0-1.24-.91,3.66,3.66,0,0,0-1.43-.25,3.32,3.32,0,0,0-2.42.89,3,3,0,0,0-.92,2.28,3,3,0,0,0,.89,2.22,3.22,3.22,0,0,0,2.33.86,3.38,3.38,0,0,0,2.79-1.23l2.1,1.44a5.7,5.7,0,0,1-4.82,2.23,5.81,5.81,0,0,1-4.39-1.66,5.51,5.51,0,0,1,1.34-8.77,6.36,6.36,0,0,1,3.09-.75,6.27,6.27,0,0,1,2.84.63A5.34,5.34,0,0,1,323.43,74Z"></path><path class="cls-2" d="M336.34,77.91h-8.57a2.88,2.88,0,0,0,1,1.8,3.11,3.11,0,0,0,2.06.67,3.58,3.58,0,0,0,2.57-1l2.24,1a5.28,5.28,0,0,1-2,1.77,6.3,6.3,0,0,1-2.78.57,5.5,5.5,0,0,1-4.07-1.58,5.36,5.36,0,0,1-1.57-4,5.57,5.57,0,0,1,1.56-4,5.29,5.29,0,0,1,3.93-1.61,5.48,5.48,0,0,1,4.09,1.61,5.84,5.84,0,0,1,1.57,4.24Zm-2.67-2.1a2.63,2.63,0,0,0-1-1.44,3,3,0,0,0-1.8-.56,3.17,3.17,0,0,0-2,.63,3.45,3.45,0,0,0-1,1.37Z"></path><path class="cls-2" d="M.07,12.2s9,8.63,29.84,11.25v4.91s-7.69-.95-9.84-1.78L17,77.25A59.2,59.2,0,0,0,4.79,82.5l3.27-59A37.83,37.83,0,0,1,0,18.3Z"></path><path class="cls-3" d="M85.21,12.07s-7,8-29.4,11.25v5.09s7.07-1.24,9.36-1.89L68.23,77a49.13,49.13,0,0,1,12.26,4.87l-3.3-58.51a52.41,52.41,0,0,0,8-5.23Z"></path><path class="cls-4" d="M29.91,23.45v4.91l6.21.67-1.7,44.91a61.86,61.86,0,0,1,18.23.1l-3-45.28,6.14-.35V23.32A119.4,119.4,0,0,1,29.91,23.45Z"></path><path class="cls-4" d="M48.15,9.13c0,4.81-2.38,8.7-5.32,8.7s-5.33-3.89-5.33-8.7S39.89.43,42.83.43,48.15,4.33,48.15,9.13Z"></path><path class="cls-2" d="M20.2,7.82c0,4-2.39,7.25-5.33,7.25S9.54,11.82,9.54,7.82,11.93.57,14.87.57,20.2,3.81,20.2,7.82Z"></path><path class="cls-3" d="M75.87,7.58c0,4-2.38,7.25-5.32,7.25s-5.33-3.24-5.33-7.25S67.6.33,70.55.33,75.87,3.58,75.87,7.58Z"></path></g></g></svg> 